<?xml version="1.0" standalone="no"?>
<!DOCTYPE svg PUBLIC "-//W3C//DTD SVG 20010904//EN"
 "http://www.w3.org/TR/2001/REC-SVG-20010904/DTD/svg10.dtd">
<svg version="1.0" xmlns="http://www.w3.org/2000/svg"
 width="110.000000pt" height="133.000000pt" viewBox="0 0 110.000000 133.000000"
 preserveAspectRatio="xMidYMid meet">
<metadata>
Created by potrace 1.10, written by Peter Selinger 2001-2011
</metadata>
<g transform="translate(0.000000,133.000000) scale(0.100000,-0.100000)"
fill="#000000" stroke="none">
<path d="M39 1294 c-19 -20 -19 -38 -20 -629 0 -579 1 -609 19 -627 17 -18 45
-19 512 -19 468 0 494 1 512 18 18 18 19 48 19 628 0 579 -1 609 -19 627 -17
18 -46 19 -511 21 -488 2 -492 2 -512 -19z m103 -20 c-29 -20 -66 -57 -86 -86
-16 -22 -16 -22 -16 11 0 45 46 91 91 91 33 0 33 0 11 -16z m889 -13 c21 -21
29 -39 28 -63 0 -30 -1 -31 -12 -14 -7 11 -32 39 -57 62 l-45 44 28 0 c18 0
39 -11 58 -29z m-139 3 c50 -17 108 -67 135 -117 16 -28 18 -69 21 -345 3
-353 -1 -381 -64 -446 -70 -72 -64 -71 -412 -74 -353 -3 -381 1 -446 64 -72
69 -71 65 -74 409 -2 216 0 323 9 352 20 73 76 134 148 159 57 21 622 19 683
-2z m-810 -920 c18 -20 48 -46 68 -58 69 -44 108 -48 420 -44 293 3 295 3 350
29 30 14 73 44 95 67 27 30 41 38 47 29 9 -14 11 -181 2 -226 l-7 -31 -25 39
-25 39 -59 -5 c-36 -4 -58 -2 -58 5 0 14 -49 25 -63 14 -26 -20 -60 -21 -85
-1 -23 18 -26 18 -43 3 -15 -14 -22 -14 -53 -3 -32 12 -38 11 -58 -8 -20 -18
-30 -20 -73 -13 -27 4 -66 5 -86 3 -23 -3 -50 1 -73 12 -22 11 -46 15 -62 11
-14 -4 -32 -2 -39 4 -10 8 -23 5 -50 -10 -35 -20 -39 -20 -62 -5 -22 15 -27
15 -47 2 -12 -8 -28 -34 -36 -57 -11 -34 -15 -39 -21 -24 -12 30 -11 264 1
264 6 0 25 -16 42 -36z m164 -167 c-2 -16 5 -26 21 -34 21 -10 23 -9 23 13 0
19 5 24 25 24 14 0 25 -4 25 -10 0 -5 -7 -7 -15 -4 -8 4 -15 1 -15 -5 0 -6 6
-11 13 -12 10 0 10 -2 0 -6 -7 -2 -13 -13 -13 -24 0 -27 -36 -25 -45 4 -8 21
-8 21 -12 -5 -8 -49 -23 -30 -23 27 0 30 4 55 9 55 5 0 8 -10 7 -23z m-117 -9
c23 -61 23 -67 1 -61 -11 3 -27 0 -35 -7 -8 -7 -15 -9 -15 -4 0 12 32 94 37
94 2 0 7 -10 12 -22z m601 -3 c0 -16 6 -25 15 -25 9 0 15 -9 15 -25 0 -26 -7
-29 -34 -19 -18 7 -23 94 -6 94 6 0 10 -11 10 -25z m132 3 c5 -39 -4 -78 -18
-78 -8 0 -11 6 -8 15 4 8 1 22 -6 30 -9 10 -9 15 -1 15 6 0 11 9 11 20 0 27
18 25 22 -2z m-216 -3 c4 -8 1 -22 -5 -29 -8 -10 -9 -16 -1 -21 5 -3 10 -11
10 -17 0 -7 -4 -7 -13 1 -10 8 -17 7 -25 -1 -9 -9 -12 -1 -12 35 0 41 3 47 20
47 11 0 23 -7 26 -15z m-436 -15 c0 -5 -8 -10 -17 -11 -14 0 -13 -3 5 -11 12
-6 21 -16 19 -22 -5 -15 -57 -20 -57 -6 0 6 4 9 9 5 5 -3 12 -1 16 5 3 5 -1
10 -9 10 -16 0 -22 21 -9 33 10 11 43 8 43 -3z m800 0 c0 -5 -8 -10 -17 -11
-14 0 -13 -3 5 -11 12 -6 21 -16 19 -22 -5 -15 -57 -20 -57 -6 0 6 4 9 9 5 5
-3 12 -1 16 5 3 5 -1 10 -9 10 -16 0 -22 21 -9 33 10 11 43 8 43 -3z m-620
-24 c0 -31 -18 -43 -36 -24 -19 18 -8 48 17 48 13 0 19 -7 19 -24z m100 -12
c0 -23 -6 -37 -19 -44 -25 -13 -31 -13 -31 0 0 6 7 10 15 10 20 0 19 6 -5 30
-26 26 -38 25 -43 -2 -3 -18 -5 -16 -6 8 -1 30 0 31 44 32 45 0 45 0 45 -34z
m58 8 c3 -16 -2 -22 -17 -22 -24 0 -35 15 -27 36 9 23 40 13 44 -14z m150 1
c-2 -17 -9 -28 -18 -28 -9 0 -16 11 -18 28 -3 22 1 27 18 27 17 0 21 -5 18
-27z m112 -3 c0 -35 -25 -42 -35 -10 -8 24 1 40 21 40 9 0 14 -11 14 -30z
m124 16 c-18 -14 -18 -15 -1 -21 20 -8 23 -25 3 -25 -20 0 -39 27 -32 45 3 8
15 15 28 15 21 0 21 0 2 -14z m-346 -58 c9 -9 65 -13 195 -15 100 -1 193 -2
207 -2 l25 -2 -25 -14 c-19 -10 -76 -13 -246 -13 -122 0 -227 3 -233 8 -9 5
-2 14 21 28 40 25 41 25 56 10z m-437 -9 c27 -9 57 -9 110 -1 51 8 77 8 86 1
7 -6 25 -8 41 -4 36 7 66 -19 33 -30 -39 -12 -295 -3 -319 12 -12 8 -20 18
-17 23 8 13 19 12 66 -1z"/>
<path d="M190 1134 c0 -42 35 -93 75 -110 34 -14 35 -16 35 -72 l0 -57 -20 33
c-11 17 -24 32 -29 32 -5 0 -16 3 -25 6 -11 4 -16 0 -16 -14 0 -24 37 -72 56
-72 20 0 18 -11 -11 -50 -37 -51 -34 -103 9 -146 38 -38 32 -54 -20 -54 -63 0
-99 -99 -58 -158 14 -20 14 -22 -1 -22 -9 0 -13 -4 -10 -10 8 -14 672 -14 680
0 4 6 -8 10 -30 10 -35 0 -36 0 -21 22 23 32 20 100 -5 132 -17 21 -29 26 -68
26 -43 0 -71 12 -71 32 0 4 9 8 19 8 12 0 40 24 67 55 26 30 51 55 56 55 8 0
40 -56 44 -76 1 -7 12 -22 25 -35 14 -14 18 -24 11 -27 -18 -6 -14 -36 9 -66
24 -30 36 -33 43 -8 7 23 -8 78 -22 75 -13 -3 -23 35 -11 43 14 8 11 42 -5 51
-17 10 -46 67 -46 91 0 40 -64 60 -77 25 -3 -10 -24 -37 -46 -60 -45 -47 -87
-58 -87 -23 0 11 5 20 10 20 6 0 22 11 35 25 21 20 25 34 25 84 0 54 4 66 40
117 22 32 40 61 40 66 0 4 -62 8 -138 8 l-138 0 -62 -91 c-34 -50 -59 -95 -56
-100 3 -5 39 -9 80 -9 43 0 74 -4 74 -10 0 -6 -33 -10 -79 -10 -103 0 -131
-19 -131 -89 0 -26 -5 -52 -11 -58 -6 -6 -12 -19 -13 -29 -4 -27 -20 -27 -45
0 -32 34 -30 86 4 136 28 41 44 94 45 147 0 28 5 35 35 47 57 24 103 126 58
126 -29 0 -81 -37 -88 -62 -12 -36 -28 -39 -57 -11 -36 34 -37 18 -1 -19 29
-31 21 -38 -13 -10 -25 20 -44 53 -44 77 0 14 3 14 30 0 16 -8 36 -28 44 -43
14 -25 15 -25 16 -5 0 20 -51 73 -70 73 -5 0 -15 3 -24 6 -12 5 -16 0 -16 -22z
m220 -14 c0 -21 -25 -61 -47 -76 -24 -15 -24 -15 -14 5 6 11 16 23 21 26 6 3
10 12 10 18 -1 7 -14 -4 -30 -23 -32 -37 -41 -30 -13 10 29 42 73 66 73 40z
m180 -47 c-1 -22 -30 -43 -59 -43 -35 0 -38 6 -14 32 15 17 73 26 73 11z m74
-18 c-12 -19 -25 -25 -51 -25 l-34 0 18 25 c13 17 28 24 51 25 32 0 32 0 16
-25z m90 0 c-12 -19 -25 -25 -51 -25 -34 0 -36 5 -10 38 5 6 25 12 43 12 34 0
34 0 18 -25z m-221 -70 c-13 -17 -28 -24 -51 -25 -33 0 -34 5 -9 38 5 6 25 12
44 12 l34 0 -18 -25z m85 3 c-14 -21 -78 -40 -78 -23 0 23 29 45 59 45 32 0
33 -1 19 -22z m90 0 c-10 -16 -27 -24 -52 -26 l-37 -3 16 25 c13 20 26 26 52
26 34 0 35 -1 21 -22z m-213 -58 c-12 -13 -31 -20 -53 -20 -34 0 -35 0 -17 20
12 13 31 20 53 20 34 0 35 0 17 -20z m85 0 c-8 -14 -21 -20 -45 -20 -33 0 -34
1 -23 20 9 13 24 20 46 20 30 0 32 -2 22 -20z m85 0 c-17 -19 -75 -28 -75 -12
0 18 26 32 59 32 33 0 34 0 16 -20z m21 -85 c-9 -37 -32 -37 -71 2 -19 19 -35
37 -35 39 0 2 18 4 40 4 29 0 43 5 52 20 12 20 13 19 16 -11 2 -17 1 -42 -2
-54z m-196 -10 c-9 -10 -31 -15 -72 -15 -53 0 -59 2 -48 15 9 10 31 15 72 15
53 0 59 -2 48 -15z m118 3 c16 -16 15 -79 -2 -100 -10 -13 -27 -18 -65 -18
l-51 0 0 47 c0 59 20 83 70 83 20 0 41 -5 48 -12z m225 0 c7 -21 -4 -38 -23
-38 -23 0 -34 16 -26 35 7 18 43 20 49 3z m-363 -57 c0 -16 3 -36 6 -45 5 -14
-4 -16 -60 -16 l-66 0 0 38 c0 21 3 42 7 45 3 4 30 7 60 7 52 0 53 -1 53 -29z
m280 -26 c-44 -46 -60 -34 -18 14 19 22 37 34 42 29 6 -5 -3 -22 -24 -43z
m-94 -47 c-1 -23 -5 -28 -21 -26 -22 3 -33 37 -16 48 24 14 38 6 37 -22z
m-321 -65 c-9 -13 -21 -21 -27 -17 -8 5 -5 12 8 23 11 9 18 26 17 41 l-3 25
10 -24 c8 -18 7 -30 -5 -48z m201 32 c-5 -15 -9 -15 -22 -4 -13 11 -15 11 -13
-2 3 -22 -11 -49 -27 -49 -18 0 -18 10 0 35 7 11 14 25 15 30 0 6 5 10 10 10
5 0 13 3 17 8 12 12 27 -10 20 -28z m-79 9 c2 -6 -10 -10 -29 -8 -40 2 -40 2
-34 12 7 12 59 9 63 -4z m127 -39 c15 -19 24 -40 20 -46 -8 -14 -63 51 -57 68
7 18 7 18 37 -22z m-134 -7 c0 -4 -8 -8 -18 -8 -24 0 -62 -28 -71 -52 -7 -19
-8 -18 -18 5 -18 40 5 64 61 64 25 0 46 -4 46 -9z m203 -6 c17 -19 14 -32 -7
-32 -6 0 -19 12 -29 25 -17 24 -17 25 1 25 10 0 26 -8 35 -18z m-81 -94 c-4
-37 0 -53 13 -68 18 -20 17 -20 -29 -20 -47 0 -47 0 -32 22 20 28 20 84 2 120
-21 40 1 57 29 21 18 -21 21 -36 17 -75z m-318 63 c-11 -7 -17 -29 -16 -53 1
-26 -25 -43 -43 -28 -8 7 -15 17 -15 22 0 6 6 5 15 -2 8 -6 20 -8 26 -4 9 5 6
10 -9 15 -27 10 -30 33 -3 24 11 -3 22 -1 26 5 3 5 -1 10 -9 10 -9 0 -16 4
-16 9 0 5 12 9 26 9 14 0 22 -3 18 -7z m65 -43 c9 -24 5 -44 -12 -66 -14 -17
-37 4 -37 33 0 54 33 76 49 33z m103 8 c-3 -6 -6 -20 -7 -31 0 -27 -31 -31
-45 -6 -11 21 3 31 15 11 4 -6 11 -8 16 -4 5 3 0 13 -12 23 l-22 18 31 0 c20
0 29 -4 24 -11z m82 -2 c10 -25 7 -49 -8 -69 -13 -18 -14 -17 -31 9 -14 22
-16 32 -7 51 13 28 37 33 46 9z m166 -34 c0 -35 -27 -61 -41 -39 -12 20 -11
63 3 77 17 17 38 -4 38 -38z m113 28 c14 -22 0 -70 -20 -66 -27 5 -38 33 -25
63 13 28 29 29 45 3z m-53 -85 c0 -2 -10 -3 -22 -1 -14 2 -22 9 -19 18 2 8 3
28 3 45 -1 28 0 27 19 -14 10 -24 19 -45 19 -48z m-347 -15 c7 -4 -4 -8 -25
-8 l-37 0 17 30 c16 28 17 29 25 7 4 -12 13 -25 20 -29z m47 30 c0 -17 -32
-21 -46 -6 -13 13 -11 15 16 15 16 0 30 -4 30 -9z"/>
<path d="M540 795 c-10 -11 -10 -19 -2 -27 15 -15 44 -2 40 19 -4 23 -22 27
-38 8z"/>
<path d="M387 776 c-7 -19 18 -40 39 -32 8 3 14 14 12 23 -4 22 -43 29 -51 9z"/>
<path d="M284 545 c-8 -20 3 -48 16 -40 13 8 13 55 0 55 -6 0 -13 -7 -16 -15z"/>
<path d="M470 536 c0 -14 4 -27 9 -31 12 -7 25 31 16 45 -11 18 -25 10 -25
-14z"/>
<path d="M635 548 c-4 -10 -4 -26 0 -35 6 -17 7 -17 16 0 7 11 7 23 0 35 -9
16 -10 16 -16 0z"/>
<path d="M750 530 c0 -16 5 -30 10 -30 6 0 10 14 10 30 0 17 -4 30 -10 30 -5
0 -10 -13 -10 -30z"/>
</g>
</svg>
