 <svg  version="1.0" xmlns="http://www.w3.org/2000/svg"  width="300.000000pt" height="295.000000pt" viewBox="0 0 300.000000 295.000000"  preserveAspectRatio="xMidYMid meet">  <g transform="translate(0.000000,295.000000) scale(0.100000,-0.100000)" fill="#024101" stroke="none"> <path d="M180 2735 c0 -221 126 -397 325 -450 53 -15 67 -22 71 -42 8 -31 -2 -351 -11 -381 -7 -21 -10 -17 -25 27 -24 72 -63 126 -112 155 -44 25 -162 59 -172 48 -12 -11 -5 -90 11 -138 25 -75 113 -158 192 -181 33 -10 61 -23 61 -29 0 -11 -52 -90 -121 -184 -87 -118 -104 -286 -41 -412 36 -73 108 -151 166 -180 23 -11 43 -22 45 -24 2 -2 -9 -23 -25 -48 l-28 -44 -105 -4 c-83 -3 -115 -9 -146 -25 -57 -30 -110 -89 -142 -158 -26 -55 -28 -69 -28 -180 0 -111 2 -125 29 -183 16 -34 46 -78 67 -97 l38 -34 -52 -3 c-44 -3 -52 -6 -52 -23 0 -20 8 -20 1258 -23 l1258 -2 -3 22 c-3 22 -7 23 -121 26 l-118 3 40 45 c61 70 84 139 85 259 2 164 -49 278 -148 340 -49 30 -50 30 -203 31 l-154 1 -55 54 c-29 29 -54 56 -54 60 0 7 76 32 132 43 19 4 82 66 209 206 102 111 190 200 200 200 21 0 153 -222 155 -260 1 -14 2 -35 3 -47 2 -31 48 -82 84 -91 25 -7 34 -16 48 -57 24 -67 23 -72 -8 -87 -24 -12 -28 -20 -27 -53 1 -65 60 -172 119 -217 64 -49 90 -49 105 -3 16 50 14 155 -6 227 -22 82 -30 91 -70 83 -33 -6 -33 -5 -50 51 l-16 56 32 33 c61 62 45 149 -35 196 -27 16 -48 47 -98 144 -63 119 -64 124 -54 164 21 80 -41 170 -129 187 -86 16 -175 -41 -189 -121 -6 -34 -28 -61 -148 -182 l-142 -143 -87 0 -88 0 0 80 c0 67 3 80 16 80 70 0 167 69 203 143 17 36 21 71 27 254 l7 212 153 222 c85 122 154 231 154 243 0 12 -5 27 -12 34 -18 18 -963 17 -997 -1 -22 -11 -442 -606 -461 -655 -15 -34 7 -70 49 -82 20 -5 147 -10 284 -10 l247 0 0 -39 0 -40 -288 -3 c-274 -3 -289 -4 -336 -26 -74 -34 -108 -64 -141 -123 -29 -52 -30 -59 -33 -213 l-4 -158 -33 -30 c-37 -32 -60 -87 -51 -122 3 -13 -1 -32 -10 -44 l-15 -22 -61 32 c-112 59 -171 161 -172 293 0 69 4 90 30 145 17 36 51 90 76 120 113 138 146 242 157 497 4 95 10 176 14 179 4 4 39 17 77 30 86 27 154 69 215 135 77 82 131 227 123 327 l-3 37 -45 -3 c-165 -10 -317 -126 -376 -286 l-22 -61 -11 30 c-29 77 -36 93 -62 130 -62 92 -159 159 -276 189 -95 25 -93 26 -93 -49z m827 -47 c-3 -8 -6 -5 -6 6 -1 11 2 17 5 13 3 -3 4 -12 1 -19z m661 -187 c-1 -5 -28 -45 -58 -90 l-55 -80 -127 -1 -128 0 62 90 62 90 124 0 c69 0 122 -4 120 -9z m321 2 c0 -5 -26 -44 -58 -88 l-57 -80 -122 -3 -123 -3 61 91 61 90 119 0 c66 0 120 -3 119 -7z m334 -6 c-4 -7 -32 -48 -62 -90 l-55 -77 -128 0 c-101 0 -128 3 -122 13 7 11 49 72 96 140 l19 27 130 0 c104 0 128 -3 122 -13z m-827 -239 c2 -2 -21 -41 -51 -86 l-55 -82 -126 0 c-97 0 -124 3 -118 13 4 6 29 44 57 84 l49 72 51 3 c62 4 188 1 193 -4z m318 -10 c-4 -7 -30 -46 -58 -85 l-50 -73 -119 0 c-65 0 -117 4 -115 9 2 4 26 42 53 84 l50 77 123 0 c96 0 122 -3 116 -12z m300 -55 c-78 -112 -61 -103 -201 -103 -67 0 -123 3 -123 6 0 3 25 42 56 85 l55 79 130 0 130 0 -47 -67z m-817 -237 l-52 -75 -128 0 -127 -1 52 75 52 75 128 0 127 0 -52 -74z m363 69 c0 -3 -21 -37 -46 -75 l-47 -70 -124 0 -124 0 51 75 51 75 119 0 c66 0 120 -2 120 -5z m330 0 c0 -17 -84 -124 -105 -133 -15 -7 -73 -12 -136 -12 l-110 0 52 75 51 75 124 0 c68 0 124 -2 124 -5z m28 -404 c-30 -59 -86 -103 -133 -105 -33 -1 -38 2 -49 35 -33 95 -91 152 -175 172 -50 11 -51 13 -51 48 l0 37 138 4 c162 4 181 12 244 95 l43 57 3 -149 c2 -137 1 -152 -20 -194z m519 33 c24 -15 42 -66 35 -101 -6 -31 -45 -71 -77 -79 -37 -9 -90 18 -110 57 -50 95 59 184 152 123z m-1217 8 c0 -5 -9 -17 -21 -28 -12 -10 -27 -31 -35 -46 l-15 -28 -219 0 -220 0 16 25 c18 28 70 62 112 75 36 11 382 12 382 2z m355 -6 c19 -8 47 -28 61 -43 44 -47 54 -86 54 -207 l0 -111 -33 -15 c-17 -8 -43 -32 -56 -53 l-24 -37 -194 0 -193 0 0 146 c0 87 5 163 12 188 15 50 84 121 130 135 53 15 204 13 243 -3z m-445 -308 l0 -158 -225 0 -226 0 3 153 3 152 205 5 c113 3 213 5 223 5 15 1 17 -13 17 -157z m1097 39 c-25 -28 -79 -88 -120 -132 l-74 -79 -31 34 -31 35 126 127 126 126 24 -29 25 -29 -45 -53z m340 -144 c-20 -10 -25 -5 -76 79 l-54 91 24 18 23 17 52 -96 c51 -95 52 -97 31 -109z m-762 -49 c-30 -44 -32 -88 -5 -131 l20 -33 -49 0 c-96 0 -130 27 -131 103 0 38 5 53 25 72 21 22 33 25 94 25 l70 0 -24 -36z m884 -40 c30 -67 -61 -122 -106 -65 -14 18 -17 60 -5 78 4 7 19 16 32 21 32 12 64 -2 79 -34z m-735 17 c26 -29 18 -82 -16 -101 -25 -13 -31 -13 -55 0 -38 21 -45 81 -11 104 30 21 61 20 82 -3z m-1303 -167 c29 -31 5 -31 -26 0 -32 32 -41 71 -24 104 12 27 13 26 20 -26 4 -35 15 -62 30 -78z m703 95 c46 -36 22 -119 -34 -119 -27 0 -70 43 -70 70 0 24 42 70 63 70 8 0 26 -9 41 -21z m-153 -45 c-2 -35 2 -53 18 -75 12 -15 21 -31 21 -33 0 -3 -16 -30 -35 -60 -30 -47 -39 -54 -72 -59 -21 -2 -42 -1 -46 3 -5 4 16 47 45 96 30 49 52 96 51 105 -3 14 12 69 19 69 2 0 1 -21 -1 -46z m343 -168 c52 -68 97 -129 98 -136 2 -7 -14 -18 -34 -25 l-38 -14 -90 109 -90 109 27 40 c16 22 29 40 30 41 1 0 45 -56 97 -124z m-921 47 c9 -3 17 -9 17 -13 0 -7 -79 -110 -84 -110 -1 0 -18 8 -38 19 l-37 18 42 61 c39 57 43 60 62 46 11 -8 28 -17 38 -21z m192 -29 c27 -8 89 -14 137 -14 48 0 88 -3 88 -6 0 -3 -5 -14 -10 -25 -9 -16 -22 -19 -73 -19 -51 0 -72 -6 -115 -30 -64 -37 -116 -105 -140 -182 -9 -32 -20 -58 -23 -58 -4 0 -9 17 -13 38 -3 20 -19 63 -36 96 -16 32 -27 63 -23 70 4 6 32 44 62 84 45 59 60 72 76 67 11 -4 42 -13 70 -21z m1034 -109 c0 -5 -10 -22 -22 -36 -19 -21 -30 -25 -60 -21 -32 4 -44 14 -97 83 l-61 79 33 0 c18 1 47 7 63 14 30 13 31 13 87 -48 31 -33 57 -65 57 -71z m-401 -35 l78 -93 -26 -51 c-22 -45 -25 -63 -25 -161 0 -100 2 -115 27 -161 14 -27 45 -67 67 -87 l41 -37 -182 0 -182 0 31 32 c73 76 115 233 93 355 -14 83 -45 165 -70 188 -11 10 -20 23 -20 28 0 19 72 99 82 89 5 -5 44 -51 86 -102z m1252 40 c6 -11 8 -25 5 -30 -3 -6 -2 -10 4 -10 9 0 14 -10 27 -62 5 -22 5 -22 -16 2 -11 14 -30 42 -41 63 -18 35 -18 37 -2 37 15 0 16 2 3 10 -9 6 -10 10 -3 10 7 0 17 -9 23 -20z m-2371 -38 c-11 -17 -117 -72 -138 -72 -10 0 -41 39 -41 52 0 18 40 28 59 16 17 -10 28 -9 63 4 59 23 71 23 57 0z m691 10 c0 -20 -101 -82 -134 -82 -9 0 -23 12 -33 26 -16 25 -16 27 1 40 16 11 22 11 39 -1 15 -11 25 -11 40 -3 20 10 64 25 80 27 4 1 7 -3 7 -7z m986 -87 c-18 -37 -26 -45 -49 -45 l-28 0 17 33 c24 47 34 57 59 57 l22 0 -21 -45z m-1831 -75 c6 1 26 14 45 30 42 37 54 38 45 3 -6 -27 -81 -102 -101 -103 -6 0 -30 20 -53 45 -37 40 -40 47 -29 70 l12 26 36 -36 c20 -19 40 -35 45 -35z m729 30 c25 19 49 31 52 28 18 -19 -73 -118 -110 -118 -8 0 -30 19 -49 42 -30 36 -33 45 -24 65 l11 24 37 -37 37 -36 46 32z m-389 -13 c42 -42 59 -114 45 -189 -12 -60 -29 -91 -66 -115 -23 -15 -29 -15 -52 -2 -87 49 -89 277 -3 324 36 20 39 19 76 -18z m690 9 c34 -34 59 -126 50 -184 -16 -106 -73 -162 -124 -124 -38 28 -55 69 -59 144 -5 76 8 125 43 162 30 32 59 33 90 2z m1024 8 c37 -26 61 -90 60 -164 0 -73 -20 -123 -60 -153 -24 -17 -30 -18 -55 -6 -68 34 -93 186 -46 276 32 62 60 75 101 47z m-425 -34 c45 -54 58 -148 32 -223 -25 -70 -66 -94 -115 -67 -49 26 -67 178 -32 256 32 70 74 82 115 34z m156 -69 c0 -11 -4 -23 -10 -26 -6 -4 -10 5 -10 19 0 14 5 26 10 26 6 0 10 -9 10 -19z m-1851 -56 c19 -14 38 -25 43 -25 4 0 26 16 48 36 l40 36 0 -33 c0 -25 -9 -43 -37 -71 -20 -21 -42 -38 -49 -38 -6 0 -32 17 -58 38 -40 33 -46 42 -46 76 0 34 2 37 13 23 6 -9 27 -28 46 -42z m728 -15 c9 0 32 14 50 32 l33 32 0 -41 c0 -34 -6 -46 -35 -72 -40 -35 -48 -33 -112 18 -27 21 -33 33 -33 65 l0 38 40 -36 c22 -20 48 -36 57 -36z m-147 -98 c0 -34 58 -138 94 -170 l37 -32 -137 0 -137 0 25 19 c31 24 84 124 93 173 7 37 25 44 25 10z m226 -90 c-32 -32 -37 -34 -63 -23 -39 17 -81 55 -93 86 -12 32 -8 31 45 -5 24 -16 50 -30 59 -30 8 0 27 16 43 36 l27 37 9 -33 c8 -30 5 -37 -27 -68z m-801 58 c54 -37 64 -37 100 0 30 32 45 31 45 -3 0 -30 -48 -77 -80 -77 -36 0 -96 44 -108 80 -6 16 -9 30 -6 30 3 0 25 -13 49 -30z m1773 -167 c-10 -2 -26 -2 -35 0 -10 3 -2 5 17 5 19 0 27 -2 18 -5z"/> <path d="M2442 1608 c-7 -7 -12 -21 -12 -33 0 -12 5 -26 12 -33 7 -7 21 -12 33 -12 12 0 26 5 33 12 7 7 12 21 12 33 0 12 -5 26 -12 33 -7 7 -21 12 -33 12 -12 0 -26 -5 -33 -12z"/> <path d="M1487 1489 c-25 -15 -47 -70 -40 -100 14 -56 60 -85 109 -69 63 21 83 96 38 149 -27 33 -71 41 -107 20z"/> <path d="M950 1437 c-60 -46 -66 -113 -16 -163 38 -38 70 -43 116 -19 37 19 50 43 50 95 0 57 -42 100 -97 100 -21 0 -45 -6 -53 -13z"/> <path d="M1402 1071 c-21 -13 -10 -46 16 -49 27 -4 40 22 22 43 -14 17 -20 18 -38 6z"/> <path d="M525 573 c-25 -38 -27 -139 -2 -176 42 -65 101 -11 100 91 -1 92 -60 143 -98 85z"/> <path d="M1221 574 c-16 -21 -21 -41 -21 -89 0 -48 5 -68 21 -89 46 -58 94 -12 94 89 0 101 -48 147 -94 89z"/> <path d="M2268 589 c-39 -22 -47 -144 -12 -196 21 -33 60 -30 79 7 23 44 20 141 -6 174 -22 28 -34 31 -61 15z"/> <path d="M1825 560 c-23 -25 -32 -110 -15 -150 7 -17 22 -36 33 -42 17 -9 24 -6 44 16 32 37 33 131 2 170 -25 31 -40 33 -64 6z"/> </g> </svg> 